<?xml version="1.0" encoding="utf-8"?>
<!-- Generator: Adobe Illustrator 18.1.1, SVG Export Plug-In . SVG Version: 6.00 Build 0)  -->
<svg version="1.1" id="icons" xmlns="http://www.w3.org/2000/svg" xmlns:xlink="http://www.w3.org/1999/xlink" x="0px" y="0px"
	 viewBox="0 0 116.1 100" enable-background="new 0 0 116.1 100" xml:space="preserve">
<path fill="#517FA4" d="M26.8,34.5H5.5c-2,0-3.7,1.6-3.7,3.7v21.6c0,2,1.6,3.7,3.7,3.7h21.2c2,0,3.7-1.6,3.7-3.7V38
	C30.4,35.9,28.8,34.5,26.8,34.5z M22.1,48.8c0,3.3-2.7,5.9-5.9,5.9s-5.9-2.7-5.9-5.9c0-1,0.2-1.8,0.6-2.7c1-1.8,2.9-3.3,5.1-3.3
	s4.3,1.2,5.1,3.3C21.7,47,22.1,47.8,22.1,48.8z M27.2,58.4c0,0.8-0.6,1.4-1.4,1.4h-19c-0.8,0-1.4-0.6-1.4-1.4V45.9h2.4
	c-0.2,0.8-0.4,1.8-0.4,2.7c0,4.9,4.1,9,9,9s9-4.1,9-9c0-1-0.2-1.8-0.4-2.7h2.7L27.2,58.4L27.2,58.4z M27.2,41.4
	c0,0.8-0.6,1.4-1.4,1.4h-2.2c-0.8,0-1.4-0.6-1.4-1.4V39c0-0.6,0.4-1.2,1-1.4h2.7c0.8,0,1.4,0.6,1.4,1.4V41.4L27.2,41.4z"/>
<path fill="#4B71B8" d="M27,70H5.5c-2,0-3.7,1.6-3.7,3.7v21.4c0,2,1.6,3.7,3.7,3.7h11.8V87.2h-2.7v-4.1h2.4c0-1.2,0-2.2,0-3.3
	c0-3.3,2.4-4.1,4.7-4.1c1.4,0,3.7,0,3.7,0l0,0l0,0v3.9c-0.4,0-1.4,0-2,0c0,0-1.4,0-1.4,1.2c0,0.6,0,2.2,0,2.2h3.7L25.5,87h-3.3v11.6
	h4.9c2,0,3.7-1.6,3.7-3.7V73.5C30.6,71.7,29,70,27,70z"/>
<path fill="#4BD0EF" d="M35.3,4.7c-1.2,0.6-2.4,0.8-3.9,1c1.4-0.8,2.4-2.2,3.1-3.9c-1.2,0.8-2.9,1.4-4.3,1.6
	c-1.2-1.4-3.1-2.2-5.1-2.2c-3.9,0-6.9,3.1-6.9,6.9c0,0.6,0,1,0.2,1.6C12.7,9.6,7.6,6.8,4.1,2.7c-0.4,1-0.8,2.2-0.8,3.5
	c0,2.4,1.2,4.5,3.1,5.7c-1.2,0-2.2-0.4-3.1-0.8l0,0c0,3.3,2.4,6.1,5.5,6.7C8.2,18,7.6,18,7,18c-0.4,0-0.8,0-1.2-0.2
	c0.8,2.7,3.5,4.7,6.3,4.7c-2.4,2-5.3,3.1-8.6,3.1c-0.6,0-1,0-1.6,0c3.1,2,6.7,3.1,10.6,3.1c12.7,0,19.6-10.4,19.6-19.6
	c0-0.2,0-0.6,0-0.8C33.3,7.2,34.3,5.9,35.3,4.7z"/>
<path fill="#8BB678" d="M67.6,34.5H46.3c-2,0-3.7,1.6-3.7,3.7v21.6c0,2,1.6,3.7,3.7,3.7h21.2c2,0,3.7-1.6,3.7-3.7V38
	C71.2,35.9,69.6,34.5,67.6,34.5z M62.9,48.8c0,3.3-2.7,5.9-5.9,5.9c-3.3,0-5.9-2.7-5.9-5.9c0-1,0.2-1.8,0.6-2.7
	c1-1.8,2.9-3.3,5.1-3.3s4.3,1.2,5.1,3.3C62.5,47,62.9,47.8,62.9,48.8z M68,58.4c0,0.8-0.6,1.4-1.4,1.4h-19c-0.8,0-1.4-0.6-1.4-1.4
	V45.9h2.4c-0.2,0.8-0.4,1.8-0.4,2.7c0,4.9,4.1,9,9,9s9-4.1,9-9c0-1-0.2-1.8-0.4-2.7h2.7L68,58.4L68,58.4z M68,41.4
	c0,0.8-0.6,1.4-1.4,1.4h-2.2c-0.8,0-1.4-0.6-1.4-1.4V39c0-0.6,0.4-1.2,1-1.4h2.7c0.8,0,1.4,0.6,1.4,1.4V41.4L68,41.4z"/>
<path fill="#8BB678" d="M67.8,70H46.3c-2,0-3.7,1.6-3.7,3.7v21.4c0,2,1.6,3.7,3.7,3.7h11.8V87.2h-2.7v-4.1H58c0-1.2,0-2.2,0-3.3
	c0-3.3,2.4-4.1,4.7-4.1c1.4,0,3.7,0,3.7,0l0,0l0,0v3.9c-0.4,0-1.4,0-2,0c0,0-1.4,0-1.4,1.2c0,0.6,0,2.2,0,2.2h3.7L66.3,87h-3.3v11.6
	H68c2,0,3.7-1.6,3.7-3.7V73.5C71.4,71.7,69.8,70,67.8,70z"/>
<path fill="#8BB678" d="M76.1,4.7c-1.2,0.6-2.4,0.8-3.9,1c1.4-0.8,2.4-2.2,3.1-3.9c-1.2,0.8-2.9,1.4-4.3,1.6
	c-1.2-1.4-3.1-2.2-5.1-2.2c-3.9,0-6.9,3.1-6.9,6.9c0,0.6,0,1,0.2,1.6c-5.7-0.2-10.8-3.1-14.1-7.1c-0.6,1-1,2.2-1,3.5
	c0,2.4,1.2,4.5,3.1,5.7c-1.2,0-2.2-0.4-3.1-0.8l0,0c0,3.3,2.4,6.1,5.5,6.7C49,18,48.4,18,47.8,18c-0.4,0-0.8,0-1.2-0.2
	c0.8,2.7,3.5,4.7,6.3,4.7c-2.4,1.8-5.3,2.9-8.6,2.9c-0.6,0-1,0-1.6,0c3.1,2,6.7,3.1,10.6,3.1c12.7,0,19.6-10.4,19.6-19.6
	c0-0.2,0-0.6,0-0.8C74.1,7.2,75.1,5.9,76.1,4.7z"/>
<path fill="#FFFFFF" d="M107.6,34.5H86.3c-2,0-3.7,1.6-3.7,3.7v21.6c0,2,1.6,3.7,3.7,3.7h21.2c2,0,3.7-1.6,3.7-3.7V38
	C111.2,35.9,109.6,34.5,107.6,34.5z M102.9,48.8c0,3.3-2.7,5.9-5.9,5.9c-3.3,0-5.9-2.7-5.9-5.9c0-1,0.2-1.8,0.6-2.7
	c1-1.8,2.9-3.3,5.1-3.3s4.3,1.2,5.1,3.3C102.5,47,102.9,47.8,102.9,48.8z M108,58.4c0,0.8-0.6,1.4-1.4,1.4h-19
	c-0.8,0-1.4-0.6-1.4-1.4V45.9h2.4c-0.2,0.8-0.4,1.8-0.4,2.7c0,4.9,4.1,9,9,9c4.9,0,9-4.1,9-9c0-1-0.2-1.8-0.4-2.7h2.7L108,58.4
	L108,58.4z M108,41.4c0,0.8-0.6,1.4-1.4,1.4h-2.2c-0.8,0-1.4-0.6-1.4-1.4V39c0-0.6,0.4-1.2,1-1.4h2.7c0.8,0,1.4,0.6,1.4,1.4V41.4
	L108,41.4z"/>
<path fill="#FFFFFF" d="M107.8,70H86.3c-2,0-3.7,1.6-3.7,3.7v21.4c0,2,1.6,3.7,3.7,3.7h11.8V87.2h-2.7v-4.1H98c0-1.2,0-2.2,0-3.3
	c0-3.3,2.4-4.1,4.7-4.1c1.4,0,3.7,0,3.7,0l0,0l0,0v3.9c-0.4,0-1.4,0-2,0c0,0-1.4,0-1.4,1.2c0,0.6,0,2.2,0,2.2h3.7l-0.2,3.9h-3.3
	v11.6h4.9c2,0,3.7-1.6,3.7-3.7V73.5C111.4,71.7,109.8,70,107.8,70z"/>
<path fill="#FFFFFF" d="M116.1,4.7c-1.2,0.6-2.4,0.8-3.9,1c1.4-0.8,2.4-2.2,3.1-3.9c-1.2,0.8-2.9,1.4-4.3,1.6
	c-1.2-1.4-3.1-2.2-5.1-2.2c-3.9,0-6.9,3.1-6.9,6.9c0,0.6,0,1,0.2,1.6c-5.7-0.2-10.8-3.1-14.1-7.1c-0.6,1-1,2.2-1,3.5
	c0,2.4,1.2,4.5,3.1,5.7c-1.2,0-2.2-0.4-3.1-0.8l0,0c0,3.3,2.4,6.1,5.5,6.7C89,18,88.4,18,87.8,18c-0.4,0-0.8,0-1.2-0.2
	c0.8,2.7,3.5,4.7,6.3,4.7c-2.4,1.8-5.3,2.9-8.6,2.9c-0.6,0-1,0-1.6,0c3.1,2,6.7,3.1,10.6,3.1c12.7,0,19.6-10.4,19.6-19.6
	c0-0.2,0-0.6,0-0.8C114.1,7.2,115.1,5.9,116.1,4.7z"/>
</svg>
