<?xml version="1.0" encoding="utf-8"?>
<!-- Generator: Adobe Illustrator 18.1.1, SVG Export Plug-In . SVG Version: 6.00 Build 0)  -->
<svg version="1.1" id="Layer_1" xmlns="http://www.w3.org/2000/svg" xmlns:xlink="http://www.w3.org/1999/xlink" x="0px" y="0px"
	 viewBox="0 0 250 60" enable-background="new 0 0 250 60" xml:space="preserve">
<g>
	<path d="M188.1,30.6c-2.7,0.7-5.2,1.2-7.7,1.9c-0.3,0.1-0.7,0.8-0.7,1.2c0.5,6.3,1,12.6,1.5,19c0.1,0.7,0,1.8-0.5,2.1
		c-0.5,0.3-1.5,0.2-2.2-0.1c-0.4-0.2-0.8-0.9-0.9-1.4c-0.4-6.5-0.8-12.9-1.2-19.4c0-0.3-0.1-0.5-0.3-1.2c-1.4,0.8-2.6,1.4-3.8,2.1
		c-1.1,0.7-2,1.6-3,2.2c-0.9,0.5-1.2,1.1-1.1,2.1c0.2,3.9,0.4,7.7,0.2,11.6c-0.1,2-0.7,4-1.4,5.8c-0.8,2.1-3,2.9-5.2,2.2
		c-4.3-1.3-7.1-4.5-8.8-8.4c-1.1-2.5-0.4-5.2,1.5-7.4c2.2-2.4,4.8-4.2,7.7-5.7c0.8-0.4,1.8-0.9,2.2-1.7c0.4-0.7,0.3-1.7,0.5-3
		c-2.8,1.8-5.3,2.9-7.8,0.5c-3.9,3-3.9,3-7.5,0.8c-0.4,0.6-0.8,1.2-1.2,1.7c-1,1.1-2.2,1.7-3.7,1.5c-1.4-0.2-1.9-1.4-2.4-2.5
		c-0.9-2.3-0.3-4.7,0.7-6.8c0.8-1.7,2-3.2,3-4.7c0.7-1.1,1.8-1.4,3-0.8c1.2,0.5,2.3,1.3,2.4,2.8c0.1,1.3-0.1,2.5,0.1,3.8
		c0.2,1.1,0.6,2.2,1,3.5c1.7-1.2,2.3-2.7,2.5-4.2c0.1-1.1,0.5-1.9,1.5-2.1c0.9-0.2,2.2,1.1,2.3,2.2c0.1,1-0.3,2.5,1,2.8
		c0.8,0.2,1.9-0.6,2.7-1.2c1.5-1,2.1-2.5,2.3-4.2c0.2-1.5,0.5-2.9,0.9-4.3c0.4-1.4,1.2-1.8,2.2-1.5c1.3,0.4,1.8,1.5,1.3,2.8
		c-1.3,3.5-1.4,7-1.3,10.6c0,0.2,0.1,0.4,0.2,0.8c0.7-0.5,1.3-0.7,1.7-1.2c2-2,3.9-4.1,5.8-6.2c0.3-0.4,0.5-1,0.5-1.5
		c0.8-5.4,1.4-10.9,2.3-16.3c0.4-2.2,1.1-4.3,1.9-6.3c1.2-3,4.6-3.4,6.8-1.1c2.5,2.8,3.3,5.9,2.4,9.6c-1.1,4.4-3,8.3-5.9,11.9
		c-1.1,1.4-2.3,2.8-3.4,4.2c-0.4,0.5-0.8,1.1-1.1,1.7c0.1,0.1,0.2,0.2,0.2,0.3c0.7-0.1,1.4-0.1,2.1-0.2c2.4-0.4,4.8-0.8,7.1-1.3
		c0.6-0.1,1.2-0.5,1.6-0.9c0.9-1,1.7-2.1,2.7-3c0.4-0.4,1.1-0.5,1.7-0.6c0.8-0.2,1.6-0.1,2.3-0.3c1.1-0.3,2.4,1.1,2.2,2.5
		c-0.3,1.9-0.4,3.9,0.4,5.7c0.4,0.9,1,1.9,1.7,2.6c0.5,0.5,1.3,0.6,1.9,0.9c0.5,0.2,1.1,0.6,1.2,0.9c0.1,0.4-0.3,1.1-0.6,1.4
		c-1.1,0.9-2.3,0.6-3.4-0.2c-1-0.7-1.8-1.7-2.8-2.6c-1.6,2.6-3.8,4.5-7,3.6C188.1,37,187.6,35.1,188.1,30.6z M165,39.2
		c-3.4,1.9-6.6,3.6-8.7,6.8c-0.8,1.2-0.8,2.6-0.3,3.9c0.9,2.2,2.2,4.1,4.1,5.5c2.4,1.7,4.1,1.1,4.7-1.8
		C165.9,48.9,165.4,44.2,165,39.2z M179.6,22.6c0.5-0.4,0.6-0.4,0.8-0.6c3.2-3.6,5.4-7.8,6.4-12.5c0.4-1.7,0.2-3.3-0.7-4.8
		C185.7,4,185,3.6,184.4,3c-0.5,0.6-1.1,1.2-1.3,1.9c-0.9,3.6-1.8,7.3-2.5,11C180.1,18,179.9,20.2,179.6,22.6z M195.3,26.6
		c-0.2,0-0.4,0-0.5,0.1c-2.1,1.8-3.3,4.2-3.9,6.9c-0.1,0.3,0.2,1,0.5,1.1c0.4,0.1,1,0,1.4-0.2C195.3,33.2,196.2,29.1,195.3,26.6z
		 M145.4,33.6c1.7-1.6,2.7-5.1,2.1-7.1C146.1,28.7,145.2,30.9,145.4,33.6z"/>
	<path d="M80.4,24.6c-1.9,0.7-3.6,1.4-5.3,2.1c-0.3,0.2-0.5,0.9-0.6,1.4c-0.2,2.5-0.4,5-0.5,7.5c-0.1,1-0.3,1.9-1.6,1.8
		c-1.3-0.1-1.9-0.8-1.8-2.2c0.2-1.9,0.5-3.8,0.7-5.8c0.1-0.6,0-1.1,0-1.8c-1.4,0.1-2.7,0.3-4,0.3c-2.9,0-5.1-2.2-4.8-4.8
		c0.1-0.5,0.6-1,1-1.6c0.6,0.4,1.4,0.7,1.7,1.2c0.9,1.7,1,1.9,2.9,1.7c0.1,0,0.3,0,0.4,0c3.6-0.3,3.2,0.2,3.2-3.6
		c0-1.5-0.4-3-0.5-4.5c0-0.7,0.2-1.7,0.7-2.1c0.8-0.7,1.4,0.2,1.8,0.8c0.4,0.7,0.8,1.5,0.9,2.3c0.2,1.8,0.2,3.6,0.3,5.5
		c2.1-0.5,4-1.3,5.7-2.6c0.3-0.2,0.4-0.8,0.5-1.2c0.7-3.1,1.4-6.2,2.1-9.3c0.2-0.9,0.6-1.8,1-2.6c0.3-0.7,0.7-1.9,1.7-1.4
		c0.8,0.4,1.8,1.3,2,2.1c0.6,3,0.1,6-1.1,8.8c-0.7,1.7-1.7,3.2-2.5,4.7C84.2,21.8,84,22,84,22.2c-0.3,2.7-0.5,5.5-0.8,8.2
		c0,0.2,0.1,0.5,0.3,1.1c0.8-1.3,1.5-2.3,2.1-3.3c0.6-0.9,1.2-1.8,1.9-2.6c0.4-0.5,1.3-1.1,1.6-0.9c0.7,0.4,1.5,1.1,1.8,1.8
		c0.5,1.4,0.6,3,0.9,4.5c0.5,2.7,2,3.4,4.4,2.2c0.4-0.2,0.7-0.8,0.7-1.3c0.3-3,1.6-5.5,3.7-7.6c1.1-1.1,2.6-1.5,3.5-0.9
		c0.9,0.5,1.3,2,1,3.5c-0.5,2.7-2.1,4.8-4,7.2c1,0.1,2.1,0.4,3,0.2c2.7-0.5,5.3-1.3,8-1.8c0.5-0.1,1,0,1.5,0.1
		c-0.2,0.6-0.3,1.3-0.7,1.7c-2,2.1-4.6,2.6-7.3,3c-2.2,0.3-4.4,0.1-6.4-0.9c-0.8-0.4-1.5-0.4-2.4,0c-3.7,1.5-7.2-0.4-8-4.4
		c-0.2-0.9-0.4-1.8-0.9-2.9c-0.4,0.7-0.8,1.3-1.2,2c-0.9,1.9-1.6,3.9-2.6,5.8c-0.3,0.5-1.3,1.2-1.7,1c-0.8-0.3-1.6-1.1-1.8-1.8
		c-1-3.3-0.7-6.7-0.4-10C80.3,25.5,80.3,25.2,80.4,24.6z"/>
	<path d="M23.8,31.2c1.6-3.1,1.5-6.6,4.6-8.4c1.5,1,1.8,1.9,0.9,3.2c-2.1,3.1-3.1,6.7-4,10.2c-0.1,0.3-0.1,0.6-0.2,0.8
		c-0.3,0.4-0.7,1.1-1,1.1c-0.5-0.1-1.1-0.5-1.2-1c-0.4-1.2-1.2-1.2-2.1-1.1c-4.4,0.6-8.7,1.3-13.1,1.8c-1.6,0.2-3.3,0-4.9-0.4
		c-0.9-0.2-1.8-1.2-2.2-2C-0.4,33-0.4,30.2,2.1,28c2.2-2,4.6-3.5,7.4-4.6c0.2-0.1,0.5-0.2,0.7-0.3c0.1,0,0.1-0.1,0.3-0.4
		c-0.7-0.1-1.4-0.3-2.1-0.4c-1.2-0.3-2.3-0.6-3.5-1c-3-1-4.1-6.3-0.9-8.3c1.1-0.7,2.1-1.5,3.2-1.9c3.4-1.3,6.7-3.2,10.5-3.2
		c1.2,0,2.4,0.3,3.4,0.8c1.8,1,2,3.6,0.7,5c-2.6-3.9-6-2.1-9.1-1.2c-2.4,0.7-4.6,2-6.9,3.1c-1.7,0.8-1.6,1.4-0.1,2.5
		c1.6,1.2,3.5,1.2,5.4,1.3c2.3,0.1,4.6,0.3,6.8,0.6c0.5,0.1,1.1,1.2,1,1.7c-0.1,0.8-0.5,1.9-1.1,2.2c-1.7,0.8-3.6,1.3-5.4,2
		c-3.5,1.3-6.9,2.8-9.6,5.5c-1.3,1.4-1.2,2.1,0.7,2.8c2.4,0.8,4.8,0.5,7.2,0.1c2.4-0.4,4.8-0.6,7.1-0.9c1.1-0.1,2.1-0.2,3.1-0.5
		c0.3-0.1,0.8-0.8,0.7-1.1c-0.4-2-1-3.9-1.5-5.8c-0.1-0.5-0.4-1-0.3-1.4c0.1-0.5,0.5-1,0.8-1.4c0.4,0.3,0.9,0.6,1.1,1
		c0.6,1.9,1.2,3.8,1.7,5.6C23.6,30,23.7,30.4,23.8,31.2z"/>
	<path d="M121.8,34.1c0.5-0.9,0.8-1.3,1-1.9c0.8-2.6,1.5-5.2,2.2-7.8c0.2-0.6,0.6-1.4,0.9-1.4c0.6-0.1,1.5,0.3,1.9,0.7
		c0.5,0.5,0.7,1.3,0.8,2.1c0.4,2.3,0.9,4.5,2.4,6.3c1.2,1.4,2.1,1.6,3.6,0.4c1.8-1.4,2.7-3.3,3.4-5.4c1.1-3.3,2.2-6.6,2.8-9.9
		c0.7-3.3,1.6-6.8,0.6-10.2c-0.2-0.9-0.7-1.7-1.2-2.5c-0.5-0.8-0.7-1.6,0.1-2.1c0.5-0.3,1.6-0.3,1.9,0.1c0.8,1.2,1.7,2.5,2,3.8
		c0.7,2.7,0.3,5.5-0.2,8.3c-1.1,5.6-2.1,11.1-4.3,16.4c-0.8,1.8-1.9,3.3-3.5,4.3c-2.7,1.6-4.2,1.7-6.5-0.4c-1.3-1.2-2.3-2.7-3.4-4
		c-0.5,1.5-1.2,3.1-1.7,4.8c-0.6,1.6-1.9,2.9-2.9,2.9c-1.2-0.1-2.4-1.3-2.8-3.1c-0.1-0.5-0.3-1-0.3-1.5c0.1-5.8-1.1-11.5-0.2-17.3
		c0.1-0.5,0-1.1,0.2-1.6c0.2-0.5,0.5-1.2,1-1.3c0.7-0.3,1.6-0.1,1.8,0.9c0.1,0.5,0.3,1,0.3,1.6c-0.1,2.2-0.4,4.5-0.4,6.7
		c0,1.4,0.4,2.7,0.4,4.1c0,2-0.1,4-0.2,6C121.5,33.1,121.6,33.4,121.8,34.1z"/>
	<path d="M228.4,35.3c-3.1,3.6-8.7,3.2-11.5-0.7c-0.5-0.6-0.8-1-1.7-0.9c-0.5,0.1-1.1-0.5-1.7-0.8c0.3-0.6,0.5-1.5,1-1.8
		c0.7-0.5,0.9-0.9,1-1.7c0.2-1.4,0.6-2.8,1.2-4.1c1-2,3.3-2.7,4.9-1.8c1.8,1.1,2.4,3.8,1.2,5.6c-0.8,1.1-1.8,2-2.9,2.8
		c-0.7,0.5-0.7,0.9-0.2,1.5c1,1.3,2.8,1.7,4.7,1.1c2.2-0.8,2.9-1.7,2.9-3.7c0-1.5,0-2.9,0-4.4c0-0.9,0-1.9,1-2
		c0.6-0.1,1.3,0.7,2.2,1.2c2.6-1.7,5.9-2.4,9.3-2.9c0.9-0.1,1.8-0.2,2.7-0.2c0.7,0,1.6-0.3,1.4,1.1c-0.1,0.3,0.6,0.7,1.1,1.3
		c-0.9,0.2-1.7,0.5-2.6,0.7c-2.8,0.7-5.6,1.4-8.4,2.2c-0.3,0.1-0.7,0.3-1,0.5c-1.9,1.3-2.2,2.1-1.3,4.3c0.3,0.7,0.6,1.3,0.7,2
		c0.1,0.6,0,1.6-0.4,1.8c-0.6,0.3-1.5,0.1-2.3,0C229.1,36.2,228.8,35.7,228.4,35.3z"/>
	<path d="M45.8,28.9c2.5-1.3,5-2.5,7.6-3.7c0.8-0.4,1.7-0.4,2.6-0.6c0.6-0.1,1.2-0.3,1.4,0.7c0.2,0.9,0.2,1.6-0.7,2
		c-1,0.4-2.2,0.7-3.1,1.3c-1.8,1-3.5,2.1-5.1,3.5c-0.8,0.7-1.3,1.9-1.5,3c-0.3,1.4-0.7,2.1-1.8,2c-1.1-0.1-1.8-1-1.8-2.2
		c0-1.1-0.1-2.2-0.2-3.3c0-0.5-0.2-0.9-0.6-1.4c-0.2,0.7-0.4,1.5-0.6,2.2c-1,4.1-3.5,6.1-7.8,5.8c-1.9-0.1-3.5-1.2-4.1-3
		c-1.2-3.3,0.4-8.3,3.2-10.3c2-1.4,3.7-0.7,4,1.7c0.3,2.7-0.9,4.7-2.7,6.4c-0.3,0.2-0.6,0.4-0.8,0.7c-0.6,0.7-0.3,1,0.4,1.2
		c1.6,0.4,4.2-0.8,4.9-2.4c1.1-2.3,2.3-4.5,2.3-7.1c0-0.2,0-0.5,0.1-0.7c0.3-0.4,0.7-1.1,1.1-1.1c0.4,0,1.1,0.4,1.3,0.8
		C44.7,25.9,45.3,27.5,45.8,28.9z"/>
	<path d="M206.6,25c2-0.6,3.7-1.2,5.5-1.6c0.7-0.2,1.6-0.3,1.6,1c0,0.3,0.7,0.5,1.5,1c-1.1,0.4-2,0.5-2.7,0.9
		c-1.1,0.5-2.2,1.1-3,1.9c-1.1,1-1.4,2.4-0.8,3.8c0.5,1.2,1,2.3,1.5,3.4c0.4,0.9,0.7,1.9-0.4,2.6c-0.8,0.5-2.2,0.2-2.7-0.9
		c-0.8-1.7-1.4-3.5-1.9-5.3c-0.6-2.2-1-4.5-1.6-6.8c-0.2-0.8-0.5-1.8,0.6-1.9c0.6-0.1,1.5,0.5,2.1,1C206.5,24.3,206.6,24.8,206.6,25
		z"/>
</g>
</svg>
